<svg id="logo_laftels02" xmlns="http://www.w3.org/2000/svg" width="117.195" height="22.086" viewBox="0 0 117.195 22.086">
  <path id="Path_1" data-name="Path 1" d="M102.082,25.252H98.405V14.809a.15.15,0,0,0-.15-.153H95.9a.15.15,0,0,0-.15.153v12.31a.15.15,0,0,0,.15.15h6.182a.15.15,0,0,0,.15-.15V25.4a.15.15,0,0,0-.15-.15Zm10.2-10.6h-2.945a.146.146,0,0,0-.143.111l-3.437,12.3a.164.164,0,0,0,.025.128.15.15,0,0,0,.121.061h2.245a.15.15,0,0,0,.143-.111l.714-2.713h3.476c.057.2.714,2.713.714,2.713a.15.15,0,0,0,.143.111h2.334a.143.143,0,0,0,.114-.061.139.139,0,0,0,.029-.128l-3.369-12.3A.153.153,0,0,0,112.286,14.656Zm-2.755,7.823c.071-.311.982-4.212,1.21-5.179l1.2,5.179Zm16.6-7.809h-6.092a.15.15,0,0,0-.15.153v12.3a.15.15,0,0,0,.15.15H122.3a.15.15,0,0,0,.153-.15V21.765h3.487a.146.146,0,0,0,.15-.146V19.927a.15.15,0,0,0-.15-.15h-3.487V16.658h3.676a.15.15,0,0,0,.15-.15v-1.7a.15.15,0,0,0-.15-.153Zm12.135,0h-7.959a.15.15,0,0,0-.15.153v1.7a.15.15,0,0,0,.15.15H133V27.119a.15.15,0,0,0,.15.15h2.281a.146.146,0,0,0,.146-.15V16.658h2.691a.15.15,0,0,0,.15-.15v-1.7a.15.15,0,0,0-.161-.153Zm10.936,10.6h-4.162V21.7h3.712a.15.15,0,0,0,.15-.15V19.859a.15.15,0,0,0-.15-.15h-3.712V16.658h4.015a.15.15,0,0,0,.15-.15v-1.7a.15.15,0,0,0-.15-.153H142.63a.15.15,0,0,0-.15.153v12.31a.15.15,0,0,0,.15.15h6.564a.15.15,0,0,0,.15-.15V25.4a.15.15,0,0,0-.153-.15Zm11.125,0H156.65V14.809a.15.15,0,0,0-.15-.153h-2.281a.15.15,0,0,0-.15.153v12.31a.15.15,0,0,0,.15.15h6.107a.15.15,0,0,0,.15-.15V25.4a.15.15,0,0,0-.161-.15Zm9.069-5.015-.178-.114-.714-.425c-.967-.567-1.8-1.071-1.8-2.017a1.174,1.174,0,0,1,1.26-1.3c1,0,1.2.6,1.2,1.5v.3a.15.15,0,0,0,.15.15h2.259a.15.15,0,0,0,.15-.15v-.478c0-2.252-1.16-3.3-3.655-3.3-2.588,0-3.958,1.192-3.958,3.448,0,2.106,1.26,2.895,2.716,3.812l.228.143.482.289c.974.582,1.745,1.042,1.745,2.017a1.244,1.244,0,0,1-1.381,1.4c-1.128,0-1.349-.714-1.349-1.981V23.4a.146.146,0,0,0-.146-.15h-2.313c-.086,0-.15.2-.15.286,0,2.887,1.071,3.958,3.926,3.958,2.67-.014,4-1.192,4-3.551,0-2.106-1.031-2.777-2.477-3.7Z" transform="translate(-61.576 -9.273)" fill="#231815"/>
  <path id="Path_2" data-name="Path 2" d="M7.556,3.665h8.123V17.992l6.546,4.094V3.751A3.748,3.748,0,0,0,18.477,0H3.751A3.751,3.751,0,0,0,0,3.751V21.857l13.748.089L7.556,17.992Z" transform="translate(0)" fill="#eb5c01"/>
  <path id="Path_3" data-name="Path 3" d="M319.941,41.279a1.842,1.842,0,1,1-1.324.522,1.838,1.838,0,0,1,1.324-.522Zm0,3.241A1.342,1.342,0,1,0,318.6,43.2,1.338,1.338,0,0,0,319.941,44.52ZM319.227,44V42.282a4.354,4.354,0,0,1,.714-.057c.357,0,.839.036.839.518,0,.175-.164.321-.385.378v.029a.5.5,0,0,1,.339.435,2.043,2.043,0,0,0,.125.414h-.532a1.021,1.021,0,0,1-.136-.378c-.036-.261-.171-.261-.482-.261V44Zm.5-.974c.232,0,.5,0,.5-.221,0-.136-.114-.225-.307-.225h-.193Z" transform="translate(-204.541 -26.546)" fill="#231815"/>
</svg>
