<svg id="logo_laftels02" xmlns="http://www.w3.org/2000/svg" width="157.723" height="29.723" viewBox="0 0 157.723 29.723">
  <path id="Path_1" data-name="Path 1" d="M104.271,29H99.324V14.944a.2.2,0,0,0-.2-.207h-3.17a.2.2,0,0,0-.2.207V31.51a.2.2,0,0,0,.2.2h8.319a.2.2,0,0,0,.2-.2V29.2a.2.2,0,0,0-.2-.2ZM118,14.737h-3.963a.2.2,0,0,0-.192.149l-4.626,16.552a.221.221,0,0,0,.034.173.2.2,0,0,0,.163.082h3.021a.2.2,0,0,0,.192-.149l.961-3.651h4.678c.077.274.961,3.651.961,3.651a.2.2,0,0,0,.192.149h3.141a.192.192,0,0,0,.154-.082.187.187,0,0,0,.038-.173l-4.534-16.552A.207.207,0,0,0,118,14.737ZM114.3,25.266c.1-.418,1.321-5.668,1.628-6.97l1.619,6.97Zm22.34-10.51h-8.2a.2.2,0,0,0-.2.207V31.51a.2.2,0,0,0,.2.2h3.045a.2.2,0,0,0,.207-.2V24.305h4.693a.2.2,0,0,0,.2-.2V21.832a.2.2,0,0,0-.2-.2h-4.693v-4.2h4.947a.2.2,0,0,0,.2-.2V14.944a.2.2,0,0,0-.2-.207Zm16.331,0H142.256a.2.2,0,0,0-.2.207v2.286a.2.2,0,0,0,.2.2h3.622V31.51a.2.2,0,0,0,.2.2h3.069a.2.2,0,0,0,.2-.2V17.432h3.622a.2.2,0,0,0,.2-.2V14.944a.2.2,0,0,0-.216-.207Zm14.717,14.261h-5.6v-4.8h5a.2.2,0,0,0,.2-.2V21.74a.2.2,0,0,0-.2-.2h-5V17.432h5.4a.2.2,0,0,0,.2-.2V14.944a.2.2,0,0,0-.2-.207h-8.646a.2.2,0,0,0-.2.207V31.51a.2.2,0,0,0,.2.2h8.833a.2.2,0,0,0,.2-.2V29.2a.2.2,0,0,0-.207-.2Zm14.972,0H177.71V14.944a.2.2,0,0,0-.2-.207h-3.069a.2.2,0,0,0-.2.207V31.51a.2.2,0,0,0,.2.2h8.219a.2.2,0,0,0,.2-.2V29.2a.2.2,0,0,0-.216-.2Zm12.205-6.749-.24-.154-.961-.572c-1.3-.764-2.426-1.441-2.426-2.714a1.58,1.58,0,0,1,1.7-1.744c1.34,0,1.614.8,1.614,2.017v.4a.2.2,0,0,0,.2.2h3.041a.2.2,0,0,0,.2-.2v-.644c0-3.031-1.561-4.438-4.919-4.438-3.482,0-5.327,1.6-5.327,4.64,0,2.834,1.7,3.9,3.655,5.13l.307.192.648.389c1.311.783,2.349,1.4,2.349,2.714a1.674,1.674,0,0,1-1.859,1.883c-1.518,0-1.816-.961-1.816-2.666v-.2a.2.2,0,0,0-.2-.2H187.72c-.115,0-.2.274-.2.384,0,3.886,1.441,5.327,5.284,5.327,3.593-.019,5.38-1.6,5.38-4.779,0-2.834-1.388-3.737-3.334-4.981Z" transform="translate(-49.758 -7.494)" fill="#231815"/>
  <path id="Path_2" data-name="Path 2" d="M10.169,4.933H21.1V24.214l8.809,5.509V5.048A5.044,5.044,0,0,0,24.867,0H5.048A5.048,5.048,0,0,0,0,5.048V29.416l18.5.12-8.334-5.322Z" transform="translate(0)" fill="#eb5c01"/>
  <path id="Path_3" data-name="Path 3" d="M320.591,41.279a2.479,2.479,0,1,1-1.782.7,2.474,2.474,0,0,1,1.782-.7Zm0,4.361a1.806,1.806,0,1,0-1.809-1.778A1.8,1.8,0,0,0,320.591,45.641Zm-.961-.7v-2.31a5.86,5.86,0,0,1,.961-.077c.48,0,1.129.048,1.129.7,0,.235-.221.432-.519.509V43.8a.677.677,0,0,1,.456.586,2.747,2.747,0,0,0,.168.557h-.716a1.374,1.374,0,0,1-.182-.509c-.048-.351-.231-.351-.648-.351v.86Zm.677-1.311c.312,0,.672,0,.672-.3,0-.183-.154-.3-.413-.3h-.259Z" transform="translate(-165.284 -21.451)" fill="#231815"/>
</svg>
