<svg id="Twitterアイコン" xmlns="http://www.w3.org/2000/svg" width="30" height="30" viewBox="0 0 30 30">
  <path id="Path_39" data-name="Path 39" d="M15,0A15,15,0,1,0,30,15,15,15,0,0,0,15,0Zm.342,13.049h.01a3.132,3.132,0,0,1-.084-.731,3.21,3.21,0,0,1,5.555-2.194,6.41,6.41,0,0,0,1.7-.6c.114-.057.228-.113.339-.176a3.2,3.2,0,0,1-1.029,1.493,2.982,2.982,0,0,1-.379.265l.017,0-.016.012a6.378,6.378,0,0,0,1.506-.368c.109-.039.219-.078.328-.122a6.5,6.5,0,0,1-1.6,1.648c.009.141.009.277.009.417A9.13,9.13,0,0,1,7.641,20.386a6.9,6.9,0,0,0,.769.047,6.413,6.413,0,0,0,3.03-.758l.058-.029c.058-.032.113-.067.169-.1a6.717,6.717,0,0,0,.726-.481h-.011l.011-.008A3.175,3.175,0,0,1,9.4,16.829a3.091,3.091,0,0,0,1.217-.01c.076-.012.153-.022.228-.038l-.017-.005.019,0a3.213,3.213,0,0,1-2.578-3.15v-.037a3.214,3.214,0,0,0,1.122.368c.109.017.219.031.33.038l-.012-.009.017,0a3.189,3.189,0,0,1-1.1-4.077c.035-.068.066-.138.106-.2a9.1,9.1,0,0,0,6.514,3.34c.031,0,.062.008.093.01Z" fill="#1f1f1f"/>
</svg>
