<svg xmlns="http://www.w3.org/2000/svg" width="30" height="30" viewBox="0 0 30 30">
  <g id="facebook" transform="translate(-40 -12)">
    <path id="Path_40" data-name="Path 40" d="M15,0A15,15,0,1,0,30,15,15,15,0,0,0,15,0ZM12.745,24.141v-8.33h0V15.8h-2.8V12.553h2.8v-2.4a5,5,0,0,1,.466-2.221c.012-.025.027-.049.04-.073.048-.092.1-.184.152-.27.026-.041.056-.08.083-.12.047-.068.093-.136.144-.2.031-.039.065-.074.1-.112.054-.062.107-.125.165-.183.026-.025.054-.048.08-.073.071-.067.143-.133.219-.193l.028-.02a4.344,4.344,0,0,1,2.707-.833,22.168,22.168,0,0,1,2.508.131V8.9h-1.72c-1.35,0-1.613.642-1.613,1.58v2.067h0v.009h3.216L18.9,15.8H16.1v8.339H12.745Z" transform="translate(40 12)" fill="#1f1f1f"/>
  </g>
</svg>
