<svg id="Group_2464" data-name="Group 2464" xmlns="http://www.w3.org/2000/svg" width="279.401" height="278.292" viewBox="0 0 279.401 278.292">
  <text id="自社の競争優位の実現" transform="translate(133.457 274.292)" fill="#eb5c01" font-size="14" font-family="YuGothicUI-Semibold, Yu Gothic UI" font-weight="600"><tspan x="-67.703" y="0">自社の競争優位の実現</tspan></text>
  <g id="Group_243" data-name="Group 243" transform="translate(134.533 217.701)">
    <line id="Line_35" data-name="Line 35" y2="33.733" transform="translate(4.8)" fill="none" stroke="#da6529" stroke-width="1"/>
    <path id="Path_238" data-name="Path 238" d="M14343.5,1761.325s4.2,6.461,4.916,6.1,4.685-6.1,4.685-6.1" transform="translate(-14343.505 -1733.587)" fill="none" stroke="#da6529" stroke-width="1"/>
  </g>
  <g id="Group_2463" data-name="Group 2463" transform="translate(0 0)">
    <text id="ラフメソッド" transform="translate(139.267 70.143)" fill="#eb5c01" font-size="10" font-family="YuGothicUI-Light, Yu Gothic UI" font-weight="300"><tspan x="-19.963" y="0">ラフメソッド</tspan></text>
    <g id="Ellipse_5" data-name="Ellipse 5" transform="translate(128.334 88)" fill="none" stroke="#da6529" stroke-width="1">
      <circle cx="75.534" cy="75.534" r="75.534" stroke="none"/>
      <circle cx="75.534" cy="75.534" r="75.034" fill="none"/>
    </g>
    <g id="Ellipse_6" data-name="Ellipse 6" transform="translate(0 88)" fill="none" stroke="#707070" stroke-width="1">
      <circle cx="75.534" cy="75.534" r="75.534" stroke="none"/>
      <circle cx="75.534" cy="75.534" r="75.034" fill="none"/>
    </g>
    <text id="組織戦略" transform="translate(73.183 166.959)" fill="#eb5c01" font-size="14" font-family="YuGothicUI-Semibold, Yu Gothic UI" font-weight="600"><tspan x="-28" y="0">組織戦略</tspan></text>
    <text id="人事戦略" transform="translate(202.983 166.959)" fill="#eb5c01" font-size="14" font-family="YuGothicUI-Semibold, Yu Gothic UI" font-weight="600"><tspan x="-28" y="0">人事戦略</tspan></text>
    <text id="採用_評価_労務_給与" data-name="採用・評価
労務・給与" transform="translate(205.401 185.928)" fill="#eb5c01" font-size="10" font-family="YuGothicUI-Light, Yu Gothic UI" font-weight="300"><tspan x="-22.5" y="0">採用・評価</tspan><tspan y="0" font-family="OpenSans-Light, Open Sans"></tspan><tspan x="-22.5" y="13">労務・給与</tspan></text>
    <g id="Ellipse_67" data-name="Ellipse 67" transform="translate(0 88)" fill="none" stroke="#da6529" stroke-width="1">
      <circle cx="75.534" cy="75.534" r="75.534" stroke="none"/>
      <circle cx="75.534" cy="75.534" r="75.034" fill="none"/>
    </g>
    <g id="Ellipse_68" data-name="Ellipse 68" transform="translate(66)" fill="none" stroke="#707070" stroke-width="1">
      <circle cx="75.534" cy="75.534" r="75.534" stroke="none"/>
      <circle cx="75.534" cy="75.534" r="75.034" fill="none"/>
    </g>
    <g id="Ellipse_69" data-name="Ellipse 69" transform="translate(66)" fill="none" stroke="#da6529" stroke-width="1">
      <circle cx="75.534" cy="75.534" r="75.534" stroke="none"/>
      <circle cx="75.534" cy="75.534" r="75.034" fill="none"/>
    </g>
    <text id="経営戦略" transform="translate(140.712 52.326)" fill="#eb5c01" font-size="14" font-family="YuGothicUI-Semibold, Yu Gothic UI" font-weight="600"><tspan x="-28" y="0">経営戦略</tspan></text>
    <text id="管理体制_教育_キャリアパス" data-name="管理体制
教育・・キャリアパス" transform="translate(70.02 184.928)" fill="#eb5c01" font-size="9" font-family="YuGothicUI-Light, Yu Gothic UI" font-weight="300"><tspan x="-18" y="0">管理体制</tspan><tspan y="0" font-family="OpenSans-Light, Open Sans"></tspan><tspan x="-33.427" y="12">教育・・キャリアパス</tspan></text>
  </g>
</svg>
